<mxfile host="app.diagrams.net" agent="Mozilla/5.0 (Windows NT 10.0; Win64; x64) AppleWebKit/537.36 (KHTML, like Gecko) Chrome/136.0.0.0 Safari/537.36 Edg/136.0.0.0" version="27.0.1">
  <diagram name="Page-1" id="PQHj5aA1PR868wJBPjvQ">
    <mxGraphModel dx="1388" dy="1020" grid="0" gridSize="10" guides="1" tooltips="1" connect="1" arrows="1" fold="1" page="0" pageScale="1" pageWidth="850" pageHeight="1100" math="0" shadow="0">
      <root>
        <mxCell id="0" />
        <mxCell id="1" parent="0" />
        <mxCell id="SYuWS_P33RCdeV5qBOX6-8" style="edgeStyle=orthogonalEdgeStyle;rounded=0;orthogonalLoop=1;jettySize=auto;html=1;entryX=0;entryY=0.5;entryDx=0;entryDy=0;" edge="1" parent="1" source="SYuWS_P33RCdeV5qBOX6-1" target="SYuWS_P33RCdeV5qBOX6-2">
          <mxGeometry relative="1" as="geometry" />
        </mxCell>
        <mxCell id="SYuWS_P33RCdeV5qBOX6-23" style="edgeStyle=orthogonalEdgeStyle;rounded=0;orthogonalLoop=1;jettySize=auto;html=1;entryX=0;entryY=0.5;entryDx=0;entryDy=0;" edge="1" parent="1" target="SYuWS_P33RCdeV5qBOX6-6">
          <mxGeometry relative="1" as="geometry">
            <mxPoint x="80" y="280" as="targetPoint" />
            <mxPoint x="90.00003963540723" y="85.0344827586207" as="sourcePoint" />
            <Array as="points">
              <mxPoint x="70" y="85" />
              <mxPoint x="70" y="280" />
            </Array>
          </mxGeometry>
        </mxCell>
        <mxCell id="SYuWS_P33RCdeV5qBOX6-1" value="" style="shape=orEllipse;perimeter=ellipsePerimeter;whiteSpace=wrap;html=1;backgroundOutline=1;" vertex="1" parent="1">
          <mxGeometry x="120" y="70" width="30" height="30" as="geometry" />
        </mxCell>
        <mxCell id="SYuWS_P33RCdeV5qBOX6-9" style="edgeStyle=orthogonalEdgeStyle;rounded=0;orthogonalLoop=1;jettySize=auto;html=1;entryX=0;entryY=0.5;entryDx=0;entryDy=0;" edge="1" parent="1" source="SYuWS_P33RCdeV5qBOX6-2" target="SYuWS_P33RCdeV5qBOX6-3">
          <mxGeometry relative="1" as="geometry" />
        </mxCell>
        <mxCell id="SYuWS_P33RCdeV5qBOX6-2" value="&lt;font style=&quot;font-size: 19px;&quot;&gt;Thermostat&lt;/font&gt;&lt;div&gt;&lt;font style=&quot;font-size: 19px;&quot;&gt;Controller&lt;/font&gt;&lt;/div&gt;" style="rounded=0;whiteSpace=wrap;html=1;" vertex="1" parent="1">
          <mxGeometry x="180" y="55" width="120" height="60" as="geometry" />
        </mxCell>
        <mxCell id="SYuWS_P33RCdeV5qBOX6-10" style="edgeStyle=orthogonalEdgeStyle;rounded=0;orthogonalLoop=1;jettySize=auto;html=1;entryX=0;entryY=0.5;entryDx=0;entryDy=0;" edge="1" parent="1" source="SYuWS_P33RCdeV5qBOX6-3" target="SYuWS_P33RCdeV5qBOX6-4">
          <mxGeometry relative="1" as="geometry" />
        </mxCell>
        <mxCell id="SYuWS_P33RCdeV5qBOX6-3" value="&lt;font style=&quot;font-size: 19px;&quot;&gt;Actuator&lt;/font&gt;" style="rounded=0;whiteSpace=wrap;html=1;" vertex="1" parent="1">
          <mxGeometry x="340" y="55" width="90" height="60" as="geometry" />
        </mxCell>
        <mxCell id="SYuWS_P33RCdeV5qBOX6-11" style="edgeStyle=orthogonalEdgeStyle;rounded=0;orthogonalLoop=1;jettySize=auto;html=1;" edge="1" parent="1" source="SYuWS_P33RCdeV5qBOX6-4">
          <mxGeometry relative="1" as="geometry">
            <mxPoint x="640" y="-20" as="targetPoint" />
          </mxGeometry>
        </mxCell>
        <mxCell id="SYuWS_P33RCdeV5qBOX6-17" style="edgeStyle=orthogonalEdgeStyle;rounded=0;orthogonalLoop=1;jettySize=auto;html=1;entryX=1;entryY=0.5;entryDx=0;entryDy=0;" edge="1" parent="1" source="SYuWS_P33RCdeV5qBOX6-4" target="SYuWS_P33RCdeV5qBOX6-5">
          <mxGeometry relative="1" as="geometry">
            <mxPoint x="570" y="190" as="targetPoint" />
            <Array as="points">
              <mxPoint x="580" y="85" />
              <mxPoint x="580" y="190" />
            </Array>
          </mxGeometry>
        </mxCell>
        <mxCell id="SYuWS_P33RCdeV5qBOX6-22" style="edgeStyle=orthogonalEdgeStyle;rounded=0;orthogonalLoop=1;jettySize=auto;html=1;entryX=1;entryY=0.5;entryDx=0;entryDy=0;" edge="1" parent="1" source="SYuWS_P33RCdeV5qBOX6-4" target="SYuWS_P33RCdeV5qBOX6-6">
          <mxGeometry relative="1" as="geometry">
            <mxPoint x="530" y="280" as="targetPoint" />
            <Array as="points">
              <mxPoint x="630" y="85" />
              <mxPoint x="630" y="280" />
            </Array>
          </mxGeometry>
        </mxCell>
        <mxCell id="SYuWS_P33RCdeV5qBOX6-4" value="&lt;font style=&quot;font-size: 19px;&quot;&gt;Process&lt;/font&gt;" style="rounded=0;whiteSpace=wrap;html=1;" vertex="1" parent="1">
          <mxGeometry x="470" y="55" width="90" height="60" as="geometry" />
        </mxCell>
        <mxCell id="SYuWS_P33RCdeV5qBOX6-7" style="edgeStyle=orthogonalEdgeStyle;rounded=0;orthogonalLoop=1;jettySize=auto;html=1;entryX=0.5;entryY=1;entryDx=0;entryDy=0;" edge="1" parent="1" source="SYuWS_P33RCdeV5qBOX6-5" target="SYuWS_P33RCdeV5qBOX6-1">
          <mxGeometry relative="1" as="geometry">
            <mxPoint x="140" y="220" as="targetPoint" />
          </mxGeometry>
        </mxCell>
        <mxCell id="SYuWS_P33RCdeV5qBOX6-5" value="&lt;font style=&quot;font-size: 19px;&quot;&gt;Thermal Sensor&lt;/font&gt;" style="rounded=0;whiteSpace=wrap;html=1;" vertex="1" parent="1">
          <mxGeometry x="340" y="160" width="90" height="60" as="geometry" />
        </mxCell>
        <mxCell id="SYuWS_P33RCdeV5qBOX6-6" value="&lt;font style=&quot;font-size: 19px;&quot;&gt;Data acquisition system&lt;/font&gt;" style="rounded=0;whiteSpace=wrap;html=1;" vertex="1" parent="1">
          <mxGeometry x="240" y="260" width="240" height="40" as="geometry" />
        </mxCell>
        <mxCell id="SYuWS_P33RCdeV5qBOX6-12" value="" style="endArrow=classic;html=1;rounded=0;entryX=0;entryY=0.5;entryDx=0;entryDy=0;" edge="1" parent="1" target="SYuWS_P33RCdeV5qBOX6-1">
          <mxGeometry width="50" height="50" relative="1" as="geometry">
            <mxPoint x="40" y="-20" as="sourcePoint" />
            <mxPoint x="70" y="30" as="targetPoint" />
            <Array as="points">
              <mxPoint x="40" y="85" />
            </Array>
          </mxGeometry>
        </mxCell>
        <mxCell id="SYuWS_P33RCdeV5qBOX6-24" value="" style="rounded=0;whiteSpace=wrap;html=1;fillColor=none;dashed=1;dashPattern=8 8;" vertex="1" parent="1">
          <mxGeometry x="90" y="10" width="510" height="220" as="geometry" />
        </mxCell>
        <mxCell id="SYuWS_P33RCdeV5qBOX6-25" value="&lt;font style=&quot;font-size: 20px;&quot;&gt;+&lt;/font&gt;" style="text;html=1;align=center;verticalAlign=middle;whiteSpace=wrap;rounded=0;" vertex="1" parent="1">
          <mxGeometry x="100" y="85" width="20" height="25" as="geometry" />
        </mxCell>
        <mxCell id="SYuWS_P33RCdeV5qBOX6-26" value="&lt;font style=&quot;font-size: 20px;&quot;&gt;_&lt;/font&gt;" style="text;html=1;align=center;verticalAlign=middle;whiteSpace=wrap;rounded=0;" vertex="1" parent="1">
          <mxGeometry x="110" y="110" width="20" height="15" as="geometry" />
        </mxCell>
        <mxCell id="SYuWS_P33RCdeV5qBOX6-27" value="&lt;font style=&quot;font-size: 15px;&quot;&gt;Voltage feedback&lt;/font&gt;" style="text;html=1;align=center;verticalAlign=middle;whiteSpace=wrap;rounded=0;" vertex="1" parent="1">
          <mxGeometry x="155" y="160" width="170" height="30" as="geometry" />
        </mxCell>
        <mxCell id="SYuWS_P33RCdeV5qBOX6-28" value="&lt;font style=&quot;font-size: 15px;&quot;&gt;System under test&lt;/font&gt;" style="text;html=1;align=center;verticalAlign=middle;whiteSpace=wrap;rounded=0;" vertex="1" parent="1">
          <mxGeometry x="290" y="10" width="140" height="30" as="geometry" />
        </mxCell>
        <mxCell id="SYuWS_P33RCdeV5qBOX6-30" value="&lt;font style=&quot;font-size: 15px;&quot;&gt;Desired temperature input as voltage&lt;/font&gt;" style="text;html=1;align=center;verticalAlign=middle;whiteSpace=wrap;rounded=0;" vertex="1" parent="1">
          <mxGeometry x="-42.5" y="-70" width="172.5" height="30" as="geometry" />
        </mxCell>
        <mxCell id="SYuWS_P33RCdeV5qBOX6-31" value="&lt;font style=&quot;font-size: 15px;&quot;&gt;Output temperature&lt;/font&gt;" style="text;html=1;align=center;verticalAlign=middle;whiteSpace=wrap;rounded=0;" vertex="1" parent="1">
          <mxGeometry x="570" y="-60" width="140" height="30" as="geometry" />
        </mxCell>
        <mxCell id="SYuWS_P33RCdeV5qBOX6-43" value="" style="edgeStyle=orthogonalEdgeStyle;rounded=0;orthogonalLoop=1;jettySize=auto;html=1;" edge="1" parent="1" source="SYuWS_P33RCdeV5qBOX6-32" target="SYuWS_P33RCdeV5qBOX6-33">
          <mxGeometry relative="1" as="geometry" />
        </mxCell>
        <mxCell id="SYuWS_P33RCdeV5qBOX6-32" value="" style="shape=orEllipse;perimeter=ellipsePerimeter;whiteSpace=wrap;html=1;backgroundOutline=1;" vertex="1" parent="1">
          <mxGeometry y="565" width="30" height="30" as="geometry" />
        </mxCell>
        <mxCell id="SYuWS_P33RCdeV5qBOX6-41" value="" style="edgeStyle=orthogonalEdgeStyle;rounded=0;orthogonalLoop=1;jettySize=auto;html=1;" edge="1" parent="1" source="SYuWS_P33RCdeV5qBOX6-33" target="SYuWS_P33RCdeV5qBOX6-34">
          <mxGeometry relative="1" as="geometry" />
        </mxCell>
        <mxCell id="SYuWS_P33RCdeV5qBOX6-33" value="&lt;font style=&quot;font-size: 20px;&quot;&gt;Cruise Controlller&lt;/font&gt;" style="rounded=0;whiteSpace=wrap;html=1;" vertex="1" parent="1">
          <mxGeometry x="60" y="550" width="120" height="60" as="geometry" />
        </mxCell>
        <mxCell id="SYuWS_P33RCdeV5qBOX6-42" value="" style="edgeStyle=orthogonalEdgeStyle;rounded=0;orthogonalLoop=1;jettySize=auto;html=1;" edge="1" parent="1" source="SYuWS_P33RCdeV5qBOX6-34" target="SYuWS_P33RCdeV5qBOX6-35">
          <mxGeometry relative="1" as="geometry" />
        </mxCell>
        <mxCell id="SYuWS_P33RCdeV5qBOX6-34" value="&lt;font style=&quot;font-size: 20px;&quot;&gt;Throttle Actuator&lt;/font&gt;" style="rounded=0;whiteSpace=wrap;html=1;" vertex="1" parent="1">
          <mxGeometry x="220" y="550" width="120" height="60" as="geometry" />
        </mxCell>
        <mxCell id="SYuWS_P33RCdeV5qBOX6-40" style="edgeStyle=orthogonalEdgeStyle;rounded=0;orthogonalLoop=1;jettySize=auto;html=1;" edge="1" parent="1" source="SYuWS_P33RCdeV5qBOX6-35">
          <mxGeometry relative="1" as="geometry">
            <mxPoint x="600" y="580" as="targetPoint" />
          </mxGeometry>
        </mxCell>
        <mxCell id="SYuWS_P33RCdeV5qBOX6-35" value="&lt;font style=&quot;font-size: 20px;&quot;&gt;Engine &amp;amp; Transmission&lt;/font&gt;" style="rounded=0;whiteSpace=wrap;html=1;" vertex="1" parent="1">
          <mxGeometry x="380" y="550" width="150" height="60" as="geometry" />
        </mxCell>
        <mxCell id="SYuWS_P33RCdeV5qBOX6-44" style="edgeStyle=orthogonalEdgeStyle;rounded=0;orthogonalLoop=1;jettySize=auto;html=1;entryX=0.5;entryY=1;entryDx=0;entryDy=0;" edge="1" parent="1" source="SYuWS_P33RCdeV5qBOX6-36" target="SYuWS_P33RCdeV5qBOX6-32">
          <mxGeometry relative="1" as="geometry" />
        </mxCell>
        <mxCell id="SYuWS_P33RCdeV5qBOX6-36" value="&lt;font style=&quot;font-size: 20px;&quot;&gt;Vehicle speed sensor&lt;/font&gt;" style="rounded=0;whiteSpace=wrap;html=1;" vertex="1" parent="1">
          <mxGeometry x="210" y="670" width="140" height="60" as="geometry" />
        </mxCell>
        <mxCell id="SYuWS_P33RCdeV5qBOX6-39" value="" style="endArrow=none;html=1;rounded=0;exitX=1;exitY=0.5;exitDx=0;exitDy=0;entryX=1;entryY=0.5;entryDx=0;entryDy=0;" edge="1" parent="1" source="SYuWS_P33RCdeV5qBOX6-36" target="SYuWS_P33RCdeV5qBOX6-35">
          <mxGeometry width="50" height="50" relative="1" as="geometry">
            <mxPoint x="510" y="710" as="sourcePoint" />
            <mxPoint x="560" y="580" as="targetPoint" />
            <Array as="points">
              <mxPoint x="560" y="700" />
              <mxPoint x="560" y="580" />
            </Array>
          </mxGeometry>
        </mxCell>
        <mxCell id="SYuWS_P33RCdeV5qBOX6-45" value="" style="endArrow=classic;html=1;rounded=0;entryX=0;entryY=0.5;entryDx=0;entryDy=0;" edge="1" parent="1" target="SYuWS_P33RCdeV5qBOX6-32">
          <mxGeometry width="50" height="50" relative="1" as="geometry">
            <mxPoint x="-50" y="580" as="sourcePoint" />
            <mxPoint x="-10" y="565" as="targetPoint" />
          </mxGeometry>
        </mxCell>
        <mxCell id="SYuWS_P33RCdeV5qBOX6-46" value="&lt;font style=&quot;font-size: 20px;&quot;&gt;+&lt;/font&gt;" style="text;html=1;align=center;verticalAlign=middle;whiteSpace=wrap;rounded=0;" vertex="1" parent="1">
          <mxGeometry x="-30" y="585" width="20" height="25" as="geometry" />
        </mxCell>
        <mxCell id="SYuWS_P33RCdeV5qBOX6-47" value="&lt;font style=&quot;font-size: 20px;&quot;&gt;_&lt;/font&gt;" style="text;html=1;align=center;verticalAlign=middle;whiteSpace=wrap;rounded=0;" vertex="1" parent="1">
          <mxGeometry x="-10" y="595" width="20" height="15" as="geometry" />
        </mxCell>
        <mxCell id="SYuWS_P33RCdeV5qBOX6-48" value="Set speed" style="text;html=1;align=center;verticalAlign=middle;whiteSpace=wrap;rounded=0;" vertex="1" parent="1">
          <mxGeometry x="-120" y="565" width="70" height="30" as="geometry" />
        </mxCell>
        <mxCell id="SYuWS_P33RCdeV5qBOX6-49" value="Car speed" style="text;html=1;align=center;verticalAlign=middle;whiteSpace=wrap;rounded=0;" vertex="1" parent="1">
          <mxGeometry x="600" y="565" width="70" height="30" as="geometry" />
        </mxCell>
        <mxCell id="SYuWS_P33RCdeV5qBOX6-50" value="road speed" style="text;html=1;align=center;verticalAlign=middle;whiteSpace=wrap;rounded=0;" vertex="1" parent="1">
          <mxGeometry x="70" y="670" width="70" height="30" as="geometry" />
        </mxCell>
      </root>
    </mxGraphModel>
  </diagram>
</mxfile>
